Patient4_TMGait_0pt8_01_left_11_EMG.mot
version=1
nRows=33
nColumns=33
inDegrees=no
endheader
time	1LAddLong	2LGlutMax	3LGlutMed	4LIliopsoas	5LSemiMemb	6LBicFemLong	7LRecFem	8LVastMed	9LVastLat	10LGasMed	11LTibAnt	12lTibPost	13LPeroneusLong	14LSol	15LExtDigLong	16LFlexDigLong	17RAddLong	18RGlutMax	19RGlutMed	20RIliopsoas	21RSemiMemb	22RBicFemLong	23RRecFem	24RVastMed	25RVastLat	26RGasMed	27RTibAnt	28RTibPost	29RPeroneusLong	30RSol	31RExtDigLong	32RFlexDigLong
12.695	0.001373	0.58975	-0.059509	0.018921	-0.010681	0.011139	-0.009308	0.000305	0.23773	0.073853	0.023499	-0.005798	0.18662	-0.17258	-0.10864	-0.00351	-0.017853	-0.016022	-0.87753	-0.003967	0.18402	-0.005341	0.45563	0.1329	0.031281	-0.012817	0.42419	-0.002899	0.043945	-0.103	-0.000458	-0.004272
12.696	0.010834	0.5751	-0.038147	0.009918	-0.00412	-0.001068	0.001831	0.006409	0.23712	0.026855	0.067902	0.006104	0.13245	-0.029297	-0.11978	-0.006409	-0.003357	-0.072937	-0.95505	-0.022888	0.091858	-0.006561	0.26962	0.014191	0.013885	-0.018005	0.0914	-0.003204	-0.3389	-0.035858	0.001221	-0.010376
12.697	0.013123	0.62759	-0.032654	0.012817	-0.011902	-0.009918	-0.015564	0.015717	0.2359	0.032196	0.022583	-0.01358	0.075073	0.089569	-0.098572	-0.004272	-0.035706	-0.063629	-0.021973	-0.094452	0.084534	0.075531	-0.058289	0.071716	0.091248	-0.009613	-0.45609	-0.00412	-0.40405	-0.056763	-0.00061	-0.003052
12.698	0.011749	0.63309	-0.045013	0.001984	-0.004578	-0.050659	-0.028687	0.006256	0.23499	0.010071	-0.023041	-0.013428	0.030518	0.11078	-0.043488	-0.006256	-0.037689	-0.13092	0.89539	-0.010681	0.053101	0.11475	-0.25665	-0.030975	0.2977	0.001678	-0.62653	-0.000916	-0.2124	-0.11261	-0.000458	-0.009766
12.699	0.016174	0.62759	-0.056458	-0.00061	-0.00061	-0.06134	-0.022125	0.00412	0.23377	-0.01297	-0.048981	-0.008392	0.00885	0.056152	0.029602	-0.000305	-0.018311	-0.17868	0.19073	0.28458	0.053406	0.060577	-0.4277	-0.25101	0.39978	-0.00824	0.056763	-0.002594	0.92285	-0.031586	-0.001221	-0.007782
12.7	0.011292	0.62866	-0.092621	-0.007324	-0.016479	-0.044098	-0.044861	0.005188	0.2298	-0.031281	-0.056152	-0.013733	0.004425	0.015411	-0.008392	-0.009918	0.019684	-0.21194	-0.80292	0.50537	0.040741	-0.055542	-0.016937	-0.17258	0.31799	-0.015564	0.20706	-0.004578	0.24765	-0.058899	-0.002136	-0.011139
12.701	0.003967	0.61798	-0.097351	0.014954	-0.0177	-0.055847	-0.063477	-0.004425	0.23605	-0.031128	-0.012054	-0.010834	0.032959	0.042267	-0.022888	-0.011139	0.022278	-0.27298	-0.37338	0.3804	0.026093	-0.070953	-0.11139	-0.035706	0.26398	-0.013733	-0.46875	-0.016632	-1.0033	-0.077057	-0.000458	-0.008087
12.702	0.013123	0.62546	-0.093384	0.018463	-0.022888	-0.041351	-0.061951	0.001373	0.22659	-0.028229	-0.008392	-0.014496	0.042725	0.032196	0.026398	0.008545	0.02182	-0.2948	0.33737	0.07019	0.010529	-0.095062	-0.43762	-0.017548	0.21515	-0.003204	-0.41626	-0.003967	-1.1018	-0.16052	-0.001221	-0.006866
12.703	0.015259	0.67154	-0.062714	0.011749	0.006409	-0.054321	-0.061798	0.01236	0.22903	-0.048981	-0.021057	-0.023804	0.031281	-0.032654	0.1088	0.009613	0.004883	-0.30807	0.064697	-0.037689	-0.001373	-0.085297	-0.29098	-0.000305	0.12695	0	-0.068054	-0.004425	0.38391	0.018768	0.001984	-0.004425
12.704	0.019226	0.65781	-0.09201	-0.004272	0.005646	-0.032349	-0.046692	0.006104	0.21332	-0.039978	-0.091248	-0.0177	0.037537	-0.002136	0.43915	0.004425	0.004425	-0.33142	0.3952	-0.040131	-0.019989	-0.010071	0.18768	0.005341	-0.29526	-0.001221	0.1059	-0.010681	0.38345	0.177	-0.00061	-0.010681
12.705	0.010529	0.62897	-0.054474	-0.001221	-0.007019	-0.014648	-0.057068	0.005951	0.20966	-0.012207	-0.066528	-0.021362	0.046997	0.046692	0.4216	0.005493	-0.019684	-0.35873	0.11658	0.010376	-0.11597	0.10025	0.38513	-0.019684	-0.51743	-0.00885	0.41184	-0.005798	-0.2713	0.052948	-0.002594	-0.007019
12.706	0.008087	0.61493	-0.11276	0.00473	-0.025635	-0.035553	-0.059814	0.00412	0.2005	-0.001984	0.041656	-0.009766	0.087128	0.065918	-0.37018	0.010834	-0.015717	-0.42007	-0.10391	-0.019379	-0.075684	0.064697	0.18234	-0.039215	-0.62546	-0.00473	0.31433	-0.00412	0.27878	-0.055389	-0.00061	-0.004272
12.707	0.002289	0.63004	-0.14114	0.021362	-0.047913	-0.045776	-0.068512	0.000458	0.2034	-0.010681	0.13565	-0.011139	0.14587	0.043793	-0.12863	0.012665	-0.014343	-0.36896	0.20203	-0.066833	0.002899	-0.047455	-0.18692	-0.055389	-0.22507	-0.000153	0.50736	-0.007019	0.38727	0.045319	-0.000458	-0.010376
12.708	0.010071	0.62302	-0.074158	0.032501	-0.031128	-0.084381	-0.070038	0.00946	0.20386	-0.006866	0.17303	-0.019379	0.11276	0.00351	-0.13748	-0.002594	-0.006561	-0.37903	0.39627	-0.13351	-0.02121	-0.090027	-0.4126	0.034485	0.014343	-0.006866	0.76279	-0.003052	-0.31326	0.067291	-0.002899	-0.014496
12.709	0.01358	0.62851	0.04837	0.007629	0.019531	-0.097198	-0.052643	0.01297	0.19852	0.00946	0.057678	-0.007172	0.005341	0.025787	-0.033112	0.000305	-0.021515	-0.3479	0.20584	-0.12726	0.01236	-0.07782	-0.54825	0.15167	0.073547	0.003815	0.54138	-0.005035	-1.4085	-0.070038	-0.003204	-0.010376
12.71	0.023193	0.63126	0.089874	0.003967	0.041504	-0.083008	-0.071259	0.005646	0.1889	-0.01358	0.10223	-0.023956	-0.028076	0.039215	-0.053711	0.005646	-0.012817	-0.32913	-0.12299	-0.09079	0.03479	-0.048218	-0.71808	0.10468	0.027008	-0.002899	0.44708	-0.00946	-0.54977	0.075073	-0.000916	-0.014954
12.711	0.029602	0.60333	-0.046234	0.00885	0.007935	-0.041656	-0.067444	0.004272	0.18509	-0.067444	0.12482	-0.010376	0.026855	0.048065	-0.087128	0.016022	0.029449	-0.36224	0.028534	-0.049591	-0.010223	-0.053864	-0.32379	-0.015106	0.014343	-0.016022	0.28091	-0.016022	-0.033722	0.055389	0.001068	-0.014038
12.712	0.027771	0.59235	-0.11643	0.022736	-0.004272	-0.042725	-0.080566	0.004578	0.18478	-0.044861	0.078583	-0.015259	0.042267	0.034943	-0.20813	0.010529	0.051575	-0.39673	-0.1387	0.10422	-0.051727	-0.055542	-0.040283	-0.10513	0.004425	-0.020142	0.28809	-0.009613	-0.33127	-0.011139	0.000153	-0.003357
12.713	0.018768	0.59647	-0.050201	0.008087	0.012054	-0.05127	-0.097961	0.000458	0.16892	-0.044098	-0.021667	-0.015564	0.095215	0.015259	-0.19806	0.009613	0.031128	-0.38544	-0.22446	0.078888	-0.10788	-0.035858	0.024567	-0.062103	0.014648	-0.007782	-0.41428	-0.003967	1.6766	-0.11078	0.001984	0.002289
12.714	0.019836	0.57266	-0.016785	-0.00824	0.040588	-0.036469	-0.060425	0.00061	0.15503	-0.082092	-0.067444	-0.010376	0.11932	-0.065918	-0.033112	0.006561	0.011597	-0.40253	-0.24612	-0.026703	-0.073853	-0.036774	0.022888	-0.055542	0.023346	-0.007019	-0.56442	-0.009003	2.3198	-0.11078	0.00061	-0.000916
12.715	0.014496	0.58914	0.075226	0.006714	-0.003967	-0.032043	-0.062714	0.002441	0.15625	-0.089874	-0.047302	-0.02182	0.15854	-0.16037	-0.029449	0.012665	0.022125	-0.47516	0.72159	-0.072327	0.01358	-0.032043	-0.1326	0.10086	0.080872	-0.000305	-0.52399	-0.011749	0.80414	0.060577	0.001373	-0.004578
12.716	0.020447	0.54443	0.085754	0.006561	-0.049286	-0.039215	-0.079498	0.012512	0.15778	-0.11322	-0.035553	-0.011139	0.13412	-0.18295	-0.045471	0.002747	0.004883	-0.56717	0.25284	-0.041351	0.11643	0.001526	-0.067902	0.30273	0.20889	0.004272	-0.35675	-0.005341	-1.2552	-0.013123	0.001373	-0.001221
12.717	0.010986	0.51941	-0.006561	0.003357	-0.025635	-0.05249	-0.058136	0.007477	0.15854	-0.1329	-0.014496	-0.006561	0.062256	-0.15381	0.002594	0.014801	-0.02243	-0.56595	-0.13596	-0.069275	0.050507	0.088043	0.13443	0.14893	0.079651	0.003052	-0.17151	-0.007629	-2.1057	-0.028229	0.000763	-0.001373
12.718	0.012207	0.51666	-0.027008	-0.003357	-0.039368	-0.095367	-0.052948	0.010529	0.15457	-0.097046	-0.013733	-0.019989	0.073853	-0.121	0.054169	0.006104	-0.034027	-0.56061	0.041504	-0.22553	-0.023651	0.055695	0.16205	0.058289	0.009918	-0.012665	-0.029907	-0.017242	-0.83191	0.17242	-0.000305	-0.006714
12.719	0.011444	0.53314	-0.074463	-0.009003	0.036316	-0.084686	-0.052338	0.00824	0.14328	-0.080414	-0.023804	-0.009918	0.09964	-0.053253	0.050354	0.009918	-0.004578	-0.54565	-0.15335	-0.11566	0.016479	-0.009155	0.22079	-0.093079	-0.02533	-0.013733	0.18036	-0.007935	-0.046844	0.2356	0.000305	-0.016174
12.72	0.020752	0.53146	-0.027466	0.016022	0.075226	-0.081787	-0.073853	0.007172	0.13382	-0.040283	-0.05661	-0.006714	0.076752	-0.12711	0.009918	0.008392	0.005341	-0.57724	-0.02533	-0.081482	-0.02533	-0.028534	0.055695	-0.18967	-0.032196	-0.005951	0.21454	-0.006256	-0.1889	0.096283	-0.001373	-0.010681
12.721	0.017548	0.46982	-0.010223	0.007019	0.024109	-0.044556	-0.079803	0.003204	0.13504	0.001068	-0.055389	-0.010071	0.052032	-0.19775	0.013428	0.00061	-0.005341	-0.59387	0.46616	0.021973	-0.07843	0.016937	-0.01297	-0.11459	0.011749	-0.004272	0.26062	-0.002136	0.25528	-0.030518	-0.002899	-0.019226
12.722	0.022125	0.47211	0.037842	0.005798	-0.014038	-0.001984	-0.082245	0.000916	0.13153	-0.005798	-0.009003	-0.007172	0.079193	-0.049438	0.26916	0.011902	-0.014648	-0.55939	0.1062	0.26215	-0.039978	0.047455	0.093536	0.11658	0.078583	-0.003815	0.26276	-0.005188	1.1369	-0.027618	-0.000305	-0.014343
12.723	0.031128	0.46814	-0.025635	0.016632	-0.024719	-0.016174	-0.077057	0.001068	0.14069	-0.009308	0.036926	-0.009155	0.084229	-0.037079	0.094299	0.005188	0.009918	-0.53207	-0.13809	0.38544	-0.016937	0.009155	0.215	0.23132	0.10452	-0.005951	0.24338	-0.001678	1.1415	-0.17059	0.002136	-0.0177
12.724	0.03006	0.43015	-0.026093	0.015106	-0.004425	-0.029755	-0.080414	0.002136	0.12772	-0.003967	0.005341	0.000305	0.053558	-0.12497	0.005493	-0.00351	0.012512	-0.56442	0.24338	0.32227	-0.02594	0.021667	0.2092	0.18997	-0.13367	-0.012665	0.24841	0.000763	0.76675	-0.2182	0.000305	-0.012817
12.725	0.023499	0.41107	0.002899	0.01709	0.017853	-0.00061	-0.056	-0.002441	0.13001	0.020905	0.033722	0	0.007019	-0.083923	-0.13657	-0.005493	0.00351	-0.5719	0.28214	0.12589	-0.015411	0.036011	-0.043182	0.037079	-0.19775	-0.007782	0.046539	-0.001984	1.7561	-0.32425	-0.002136	-0.010681
12.726	0.022278	0.44983	0.016174	0.012512	-0.002136	0.003204	-0.04837	-0.000305	0.12756	0.040436	0.031738	-0.010834	-0.014038	0.019531	-0.079041	-0.003052	-0.003662	-0.56122	0.44617	0.031586	-0.010834	0.006714	-0.07782	-0.10422	-0.15686	-0.004578	-0.35782	-0.002136	-0.04303	-0.40634	-0.000305	-0.009766
12.727	0.016632	0.45548	-0.030823	0.012207	-0.001678	-0.01297	-0.045319	-0.019073	0.12573	0.028534	0.042419	-0.00351	-0.023041	0.055695	0.10086	-0.000458	-0.003967	-0.64529	0.21927	0.039673	-0.014038	-0.028992	0.007629	-0.26504	-0.10315	0.01297	-0.73624	-0.000458	-1.7099	-0.44418	-0.001678	-0.002594
